<svg xmlns="http://www.w3.org/2000/svg" viewBox="0 0 512 512">
  <rect fill="#080808" width="512" height="512"/>
  <path fill="#FFFFFF" d="M337.877,56.477c-38.099,13.201-102.99,44.282-102.99,109.786c0,28.073,21.723,43.571,49.089,43.571
		c62.201,0,147.984-77.73,147.984-118.083c0-4.234-0.087-15.223-13.455-15.223c-66.841,0-229.041,318.38-345.71,318.38
		c-5.872,0-29.709,0.356-29.709-13.744c0-13.59,37.537-28.413,81.874-28.413c36.763,0,129.283,47.955,202.808,47.955
		c64.913,0,139.192-36.56,139.192-78.955c0-29.34-35.801-40.379-35.956-40.294s-0.477,1.565-0.326,1.817s30.282,13.893,30.282,38.477
		c0,31.288-65.191,70.489-129.042,70.489c-78.204,0-148.812-47.489-204.958-47.489c-56.146,0-89.392,19.415-89.392,35.021
		c0,13.224,12.421,20.935,34.479,20.935c147.273,0,299.084-319.342,348.785-319.342c5.694,0,6.128,6.348,6.128,10.387
		c0,33.587-79.948,112.61-141.525,112.61c-22.388,0-38.474-8.188-38.474-33.939c0-50.596,52.92-100.014,91.349-112.154
		C338.577,58.183,338.204,56.568,337.877,56.477z"/>
</svg>
